<?xml version="1.0" standalone="no"?>
<!DOCTYPE svg PUBLIC "-//W3C//DTD SVG 20010904//EN"
 "http://www.w3.org/TR/2001/REC-SVG-20010904/DTD/svg10.dtd">
<svg version="1.0" xmlns="http://www.w3.org/2000/svg"
 width="512.000000pt" height="512.000000pt" viewBox="0 0 512.000000 512.000000"
 preserveAspectRatio="xMidYMid meet">
<g transform="translate(0.000000,512.000000) scale(0.100000,-0.100000)"
fill="#000000" stroke="none">
<path d="M386 5029 c-62 -15 -153 -68 -197 -116 -22 -24 -55 -74 -72 -111
l-32 -67 0 -2180 0 -2180 27 -58 c38 -80 117 -160 197 -200 l66 -32 2185 0
2185 0 66 32 c80 40 159 120 197 200 l27 58 0 2180 0 2180 -32 67 c-44 93
-100 151 -191 196 l-76 37 -2155 2 c-1279 0 -2172 -3 -2195 -8z m3806 -837
l23 -23 0 -369 0 -369 -23 -23 -23 -23 -1609 0 -1609 0 -23 23 c-23 23 -23 23
-26 380 -2 383 -1 394 48 419 20 10 354 12 1622 10 l1597 -2 23 -23z m0 -1240
l23 -23 0 -369 0 -369 -23 -23 -23 -23 -1195 0 -1196 0 -24 28 -24 28 0 357
c0 386 1 391 54 412 11 5 549 8 1203 7 l1182 -2 23 -23z m0 -1240 c23 -22 23
-23 26 -372 3 -400 2 -411 -65 -430 -27 -8 -484 -10 -1620 -8 l-1582 3 -23 23
c-23 23 -23 23 -26 380 -2 383 -1 394 48 419 20 10 354 12 1622 10 l1597 -2
23 -23z"/>
</g>
</svg>
